<svg version="1.2" overflow="visible" preserveAspectRatio="none" viewBox="0 0 51.29999923706055 51.29999923706055" xml:space="preserve" y="0px" x="0px" xmlns:xlink="http://www.w3.org/1999/xlink" xmlns="http://www.w3.org/2000/svg" id="Layer_1_1542274893649" width="29" height="29"><g transform="translate(1, 1)"><path d="M39,48.3H10.3c-0.9,0-1.5-0.7-1.5-1.5V18c0-0.9,0.7-1.5,1.5-1.5H39c0.9,0,1.5,0.7,1.5,1.5v28.7C40.6,47.6,39.9,48.3,39,48.3&#10;&#9;z" vector-effect="non-scaling-stroke" style="fill: rgb(44, 113, 199);"/><path d="M26.9,1.9c-1.2-1.2-3.2-1.2-4.4,0L2.6,21.8c-1.4,2.5,0.4,5.5,3.2,5.5h37.7c2.8,0,4.6-3.1,3.2-5.5L26.9,1.9z" vector-effect="non-scaling-stroke" style="fill: rgb(44, 113, 199);"/></g></svg>