<svg version="1.2" overflow="visible" preserveAspectRatio="none" viewBox="0 0 544 544" xml:space="preserve" y="0px" x="0px" xmlns:xlink="http://www.w3.org/1999/xlink" xmlns="http://www.w3.org/2000/svg" id="Capa_1_1542241277607" width="72" height="72"><g transform="translate(1, 1)"><style type="text/css">
	.st0_1542241277607{fill:#6C747A;}
	.st1_1542241277607{fill:#FD7130;}
</style><g>
	<g>
		<path d="M484.5,332c7.1-8,11.5-18.5,11.5-30c0-24.8-20.2-45-45-45h-87.3c8.6-26.3,12.3-61.1,12.3-76v-15&#10;&#9;&#9;&#9;c0-33.1-26.9-60-60-60h-15c-6.9,0-12.9,4.7-14.5,11.4l-8.2,32.7c-11.4,45.8-47.8,96.3-85.4,105.5C186.3,238.8,170,227,151,227H61&#10;&#9;&#9;&#9;c-8.3,0-15,6.7-15,15v270c0,8.3,6.7,15,15,15h90c17.9,0,33.4-10.5,40.6-25.6l51.5,17.2c16.9,5.6,34.4,8.5,52.2,8.5H421&#10;&#9;&#9;&#9;c24.8,0,45-20.2,45-45c0-5.9-1.1-11.5-3.2-16.6c19.1-5.2,33.2-22.7,33.2-43.4c0-11.5-4.4-22-11.5-30c7.1-8,11.5-18.5,11.5-30&#10;&#9;&#9;&#9;S491.6,340,484.5,332z M166,482c0,8.3-6.7,15-15,15H76V257h75c8.3,0,15,6.7,15,15V482z M421,347h30c8.3,0,15,6.7,15,15&#10;&#9;&#9;&#9;s-6.7,15-15,15h-30c-8.3,0-15,6.7-15,15s6.7,15,15,15h30c8.3,0,15,6.7,15,15s-6.7,15-15,15h-30c-8.3,0-15,6.7-15,15s6.7,15,15,15&#10;&#9;&#9;&#9;c8.3,0,15,6.7,15,15s-6.7,15-15,15H295.3c-14.5,0-28.9-2.3-42.7-6.9L196,471.2V285.6c23.5-4.5,46.6-19.4,67.4-43.8&#10;&#9;&#9;&#9;c20.3-23.8,36.8-55.4,44-84.5l5.3-21.3h3.3c16.5,0,30,13.5,30,30v15c0,20.1-6.3,58.8-14.4,76H301c-8.3,0-15,6.7-15,15&#10;&#9;&#9;&#9;s6.7,15,15,15h150c8.3,0,15,6.7,15,15s-6.7,15-15,15h-30c-8.3,0-15,6.7-15,15S412.7,347,421,347z" class="st0_1542241277607" vector-effect="non-scaling-stroke"/>
	</g>
</g><g>
	<g>
		<circle r="15" cy="452" cx="121" class="st0_1542241277607" vector-effect="non-scaling-stroke"/>
	</g>
</g><g>
	<g>
		<path d="M331,15c-8.3,0-15,6.7-15,15v31c0,8.3,6.7,15,15,15s15-6.7,15-15V30C346,21.7,339.3,15,331,15z" class="st1_1542241277607" vector-effect="non-scaling-stroke"/>
	</g>
</g><g>
	<g>
		<path d="M267.4,81.1l-21.2-21.2c-5.9-5.9-15.4-5.9-21.2,0s-5.9,15.4,0,21.2l21.2,21.2c5.9,5.9,15.4,5.9,21.2,0&#10;&#9;&#9;&#9;C273.2,96.5,273.2,87,267.4,81.1z" class="st1_1542241277607" vector-effect="non-scaling-stroke"/>
	</g>
</g><g>
	<g>
		<path d="M437.1,59.9c-5.9-5.9-15.4-5.9-21.2,0l-21.2,21.2c-5.9,5.9-5.9,15.4,0,21.2c5.9,5.9,15.4,5.9,21.2,0&#10;&#9;&#9;&#9;l21.2-21.2C442.9,75.3,442.9,65.8,437.1,59.9z" class="st1_1542241277607" vector-effect="non-scaling-stroke"/>
	</g>
</g></g></svg>