<svg xmlns="http://www.w3.org/2000/svg" version="1.2" overflow="visible" preserveAspectRatio="none" viewBox="0 0 24 24" width="32" height="32"><g><path xmlns:default="http://www.w3.org/2000/svg" id="clipboard" d="M10.67,19.99v-12h4v4.33c0,0.55,0.45,1,1,1H20v6.67H10.67z M13.23,5.23c-0.06,0.06-0.14,0.1-0.23,0.1H5.67  C5.49,5.33,5.34,5.18,5.34,4.99V4.34c0-0.18,0.15-0.33,0.33-0.34H13c0.18,0.01,0.32,0.15,0.33,0.33v0.67  C13.33,5.09,13.3,5.17,13.23,5.23z M16,8.89l3.11,3.11H16V8.89z M21.33,13.34c-0.03-0.63-0.28-1.24-0.71-1.71l-4.25-4.25  C16.26,7.26,16.13,7.17,16,7.09V3.66c0-0.55-0.45-1-1-1H3.67c-0.55,0-1,0.45-1,1v14c0,0.55,0.45,1,1,1h5.66v1.67c0,0.55,0.45,1,1,1  h10c0.55,0,1-0.45,1-1V13.34L21.33,13.34z" style="fill: rgb(44, 113, 199);" vector-effect="non-scaling-stroke"/></g></svg>